# xmcd CD database file generated by libcdaudio 0.99.12
# 
# Track frame offsets:
#       150
#       7297
#       21829
#       34104
#       40126
#       57563
#       79731
#       96352
#       110059
#       136462
#       151334
#       155950
#       175028
# 
# Disc length: 2703 seconds
# 
# Revision: 0
# Processed by: cddbd v1.5.2PL0 Copyright (c) Steve Scherf et al.
# Submitted via: libcdaudio 0.99.12
# 
DISCID=b10a8d0d
DTITLE=Borderville - Joy Through Work
DYEAR=1900
DGENRE=
TTITLE0=Lights I
TTITLE1=The Protestors
TTITLE2=Short Sharp Shock
TTITLE3=Joy
TTITLE4=Flights
TTITLE5=Joy Through Work
TTITLE6=Glambulance!
TTITLE7=The Beast of England
TTITLE8=Blood On The Kitchen Floor
TTITLE9=Stage Fright
TTITLE10=Work
TTITLE11=Lover I'm Finally Through
TTITLE12=Lights II
EXTD=
EXTT0=
EXTT1=
EXTT2=
EXTT3=
EXTT4=
EXTT5=
EXTT6=
EXTT7=
EXTT8=
EXTT9=
EXTT10=
EXTT11=
EXTT12=
PLAYORDER=
